<?xml version="1.0" standalone="no"?>
<!DOCTYPE svg PUBLIC "-//W3C//DTD SVG 20010904//EN"
 "http://www.w3.org/TR/2001/REC-SVG-20010904/DTD/svg10.dtd">
<svg version="1.0" xmlns="http://www.w3.org/2000/svg"
 width="1024.000000pt" height="1024.000000pt" viewBox="0 0 1024.000000 1024.000000"
 preserveAspectRatio="xMidYMid meet">
<metadata>
Created by potrace 1.14, written by Peter Selinger 2001-2017
</metadata>
<g transform="translate(0.000000,1024.000000) scale(0.100000,-0.100000)"
fill="#000000" stroke="none">
<path d="M7908 10161 c-54 -15 -98 -27 -98 -25 0 2 -19 -3 -41 -12 -23 -8 -51
-16 -63 -18 -12 -2 -41 -10 -66 -17 -55 -15 -46 -13 -100 -28 -25 -6 -87 -23
-138 -37 -51 -14 -98 -27 -105 -28 -6 -2 -32 -8 -57 -15 -25 -8 -49 -14 -55
-16 -36 -8 -72 -17 -85 -22 -8 -3 -24 -8 -35 -10 -35 -8 -50 -11 -55 -14 -3
-1 -9 -3 -15 -4 -24 -4 -71 -18 -80 -23 -5 -4 -16 -7 -25 -8 -21 -2 -359 -93
-392 -106 -15 -5 -32 -7 -37 -3 -6 3 -11 2 -11 -3 0 -5 -27 -15 -60 -22 -33
-7 -63 -17 -66 -22 -3 -4 -9 -6 -13 -3 -5 2 -39 -5 -77 -15 -38 -11 -78 -22
-89 -25 -11 -2 -51 -13 -90 -24 -38 -11 -70 -20 -70 -20 0 0 -7 -2 -15 -5 -17
-6 -247 -66 -270 -70 -8 -2 -22 -6 -30 -9 -8 -4 -26 -8 -40 -11 -23 -4 -40 -9
-80 -23 -8 -3 -22 -7 -30 -8 -8 -1 -51 -12 -95 -24 -44 -13 -87 -24 -95 -26
-8 -2 -94 -24 -190 -51 -96 -26 -181 -47 -187 -47 -7 0 -13 -5 -13 -10 0 -6
-3 -8 -6 -4 -3 3 -23 -1 -45 -8 -21 -8 -39 -12 -39 -10 0 3 -11 0 -25 -5 -26
-10 -56 -17 -107 -27 -16 -3 -28 -10 -28 -15 0 -5 -4 -7 -8 -4 -5 3 -65 -10
-133 -29 -68 -19 -129 -33 -136 -30 -7 2 -15 1 -17 -4 -3 -4 -24 -9 -48 -10
-53 -3 -118 -9 -178 -15 -55 -6 -161 -15 -255 -21 -38 -3 -92 -7 -120 -10 -27
-3 -86 -8 -130 -11 -44 -3 -98 -7 -120 -9 -45 -5 -163 -14 -245 -20 -30 -2
-55 -4 -55 -5 0 -1 -22 -3 -50 -5 -27 -2 -81 -6 -120 -10 -38 -3 -99 -8 -135
-11 -36 -3 -82 -6 -102 -7 -21 -1 -38 -5 -38 -10 0 -5 -6 -4 -13 2 -8 6 -17 8
-20 5 -4 -4 -35 -8 -69 -10 -35 -2 -85 -5 -113 -8 -27 -2 -84 -8 -125 -11
-126 -11 -150 -14 -162 -21 -7 -5 -8 -3 -3 6 5 7 4 11 -1 7 -9 -5 -100 -16
-184 -22 -70 -5 -221 -17 -265 -21 -48 -5 -137 -12 -220 -19 -33 -2 -87 -7
-120 -10 -33 -3 -90 -8 -128 -10 -37 -2 -72 -7 -77 -10 -6 -3 -10 -1 -10 6 0
8 -4 8 -12 2 -7 -6 -20 -10 -28 -10 -15 -1 -154 -11 -245 -18 -27 -3 -77 -7
-110 -9 -33 -3 -91 -8 -130 -12 -38 -4 -79 -7 -91 -7 -19 -1 -21 -6 -18 -58 1
-31 5 -67 9 -79 5 -16 4 -20 -5 -15 -9 6 -9 3 -2 -11 5 -11 12 -58 15 -106 5
-73 3 -89 -10 -100 -14 -11 -16 -11 -8 2 7 12 6 13 -6 4 -14 -11 -55 -22 -119
-30 -59 -8 -191 -34 -200 -39 -5 -3 -7 -11 -5 -18 7 -21 17 -90 20 -134 2 -22
6 -46 9 -52 8 -13 11 -28 20 -93 l6 -47 -42 -12 c-24 -6 -47 -12 -53 -14 -5
-1 -17 -5 -25 -8 -15 -6 -208 -57 -216 -57 -2 0 1 -12 7 -26 5 -15 7 -29 5
-32 -3 -2 1 -17 9 -33 18 -34 19 -42 3 -33 -10 6 -10 4 0 -8 10 -13 22 -48 46
-143 2 -5 6 -17 9 -25 9 -25 31 -124 29 -132 -1 -5 2 -8 6 -8 4 0 9 -12 10
-26 1 -14 5 -31 9 -37 4 -7 9 -21 11 -32 1 -11 4 -28 5 -37 2 -10 6 -21 10
-24 4 -4 7 -19 7 -34 0 -14 4 -30 10 -36 5 -5 10 -28 12 -51 2 -22 6 -39 10
-36 5 2 9 -5 9 -16 2 -23 5 -40 9 -43 2 -3 8 -36 12 -65 1 -7 4 -13 8 -13 4 0
7 -6 8 -12 1 -15 10 -53 12 -53 2 0 11 -54 12 -72 1 -7 5 -13 10 -13 5 0 6 -4
3 -10 -3 -5 -1 -10 5 -10 6 0 9 -4 6 -9 -3 -4 -1 -23 5 -42 6 -19 12 -45 15
-59 2 -14 7 -32 11 -40 3 -8 7 -20 9 -27 1 -6 7 -28 14 -48 6 -20 9 -43 6 -51
-3 -9 -1 -12 4 -9 6 3 10 -1 10 -11 0 -9 9 -47 20 -83 11 -36 21 -77 24 -91 2
-14 5 -25 6 -25 2 0 10 -36 12 -57 1 -10 6 -18 11 -18 4 0 6 -4 2 -9 -3 -5 -1
-12 3 -15 5 -3 8 -19 7 -35 -1 -17 2 -28 7 -25 7 4 9 -8 8 -41 0 -3 6 -18 13
-33 8 -15 14 -41 13 -59 0 -17 2 -29 5 -27 4 2 10 -11 14 -29 4 -17 9 -36 10
-42 2 -5 10 -36 19 -68 8 -31 17 -61 19 -65 3 -4 8 -23 11 -44 3 -20 12 -56
21 -80 8 -25 16 -53 18 -64 1 -10 7 -25 11 -33 7 -10 5 -12 -3 -6 -8 5 -7 -1
2 -16 14 -21 21 -45 31 -99 2 -8 5 -22 8 -30 3 -8 10 -30 16 -47 8 -25 7 -33
-1 -33 -7 0 -4 -5 6 -11 9 -6 15 -14 12 -19 -3 -4 2 -26 10 -49 8 -23 15 -43
15 -46 0 -3 2 -10 4 -17 22 -76 26 -102 21 -121 -4 -15 -3 -18 3 -8 9 12 15
-7 45 -136 2 -7 6 -16 10 -19 4 -4 1 -14 -6 -22 -9 -13 -9 -14 1 -8 11 7 16
-10 15 -51 -1 -7 4 -13 9 -13 6 0 8 -13 6 -29 -2 -17 -2 -30 1 -29 19 2 24 -4
11 -12 -10 -6 -11 -10 -2 -10 6 0 12 -8 12 -18 0 -10 3 -22 7 -26 7 -7 13 -37
14 -68 0 -10 4 -18 8 -18 4 0 8 -6 8 -12 0 -7 10 -49 22 -93 12 -44 24 -91 27
-103 2 -13 11 -41 18 -62 10 -29 10 -42 2 -51 -8 -9 -8 -10 0 -6 7 4 15 0 18
-9 4 -10 2 -13 -7 -8 -9 5 -9 4 1 -7 18 -19 15 -28 -9 -24 -12 3 -18 1 -15 -3
4 -4 12 -8 17 -8 5 -1 13 -2 17 -3 4 0 8 -10 9 -21 1 -13 -2 -18 -10 -13 -9 5
-9 3 0 -8 18 -22 20 -108 3 -121 -12 -8 -12 -9 2 -4 12 3 18 0 18 -10 0 -8 -4
-13 -9 -9 -5 3 -13 0 -17 -6 -4 -7 -3 -9 4 -5 12 7 25 -10 27 -36 1 -9 -3 -14
-9 -11 -6 3 -5 0 2 -8 6 -7 12 -17 12 -22 0 -4 -6 -5 -12 -1 -9 6 -9 3 1 -9 8
-10 12 -32 9 -56 -2 -22 0 -37 3 -35 10 6 16 -74 6 -91 -5 -9 -4 -15 3 -15 5
0 10 -5 10 -11 0 -5 -6 -7 -12 -3 -10 6 -10 4 -2 -7 6 -8 12 -36 13 -64 3 -61
8 -119 11 -122 7 -8 5 -30 -4 -42 -8 -11 -8 -13 0 -8 7 4 12 -9 13 -36 1 -23
4 -62 6 -87 2 -25 7 -81 10 -125 4 -44 8 -98 9 -120 1 -22 5 -46 10 -53 4 -7
2 -12 -6 -12 -8 0 -9 -3 -3 -8 6 -4 11 -25 12 -47 1 -22 4 -74 8 -115 3 -41 7
-104 10 -140 2 -36 7 -83 9 -105 3 -22 8 -76 11 -120 3 -44 8 -93 11 -108 3
-21 1 -27 -8 -21 -10 6 -11 5 -1 -8 7 -8 16 -59 19 -114 3 -54 8 -102 10 -106
2 -4 0 -10 -6 -13 -8 -5 -8 -11 0 -20 6 -7 10 -17 9 -21 -1 -5 0 -11 1 -14 7
-19 7 -41 -1 -46 -6 -4 -6 -10 0 -17 5 -7 12 -52 15 -102 8 -119 15 -187 21
-202 2 -7 0 -13 -6 -13 -6 0 -6 -7 -1 -17 5 -10 8 -39 8 -65 -1 -27 1 -48 4
-48 3 0 6 -16 7 -35 1 -25 -2 -33 -10 -28 -8 5 -8 2 1 -9 7 -9 15 -47 18 -84
2 -38 6 -78 8 -89 2 -11 -2 -26 -8 -34 -9 -12 -8 -13 2 -7 11 6 13 0 12 -25
-1 -19 -1 -36 0 -39 1 -3 3 -27 4 -55 1 -27 6 -56 10 -64 7 -10 5 -12 -5 -6
-11 7 -12 6 -2 -6 10 -12 10 -18 0 -29 -6 -7 -7 -10 -1 -7 7 4 12 -10 13 -41
1 -26 4 -65 7 -87 8 -80 16 -191 17 -252 1 -35 4 -63 8 -63 3 0 6 -15 6 -32 0
-18 1 -49 2 -68 l1 -35 55 0 c30 0 55 3 55 6 0 3 7 6 15 6 8 0 15 -5 15 -10 0
-5 7 -4 15 3 12 10 18 10 32 -1 14 -12 16 -12 8 0 -6 11 -4 13 7 8 9 -3 19 -3
22 0 13 13 81 8 94 -7 11 -13 11 -13 7 0 -4 11 2 16 20 18 20 1 26 -2 23 -16
-1 -9 1 -22 4 -28 4 -6 9 -30 10 -52 2 -23 5 -42 8 -42 3 0 7 -17 9 -37 1 -21
3 -48 4 -60 1 -13 5 -23 9 -23 4 0 7 -8 6 -18 0 -20 9 -58 16 -71 3 -5 21 -6
38 -2 18 4 36 8 41 9 4 1 8 2 10 3 1 1 13 2 27 4 58 7 145 22 145 25 0 1 16 2
35 3 19 1 38 6 42 12 4 5 8 -2 8 -17 0 -15 5 -30 10 -33 5 -3 10 -19 10 -34 0
-15 3 -31 7 -35 4 -3 8 -12 9 -19 1 -7 11 -46 22 -87 11 -41 21 -82 23 -90 5
-20 31 -30 45 -18 7 5 16 8 20 7 5 -1 16 0 24 3 73 25 80 26 80 15 0 -9 2 -9
8 0 4 6 21 15 37 19 17 4 35 9 40 13 6 3 12 6 15 6 24 3 159 38 172 45 11 6
18 5 21 -3 4 -9 6 -9 6 1 1 6 9 12 19 12 10 0 24 6 31 13 10 9 12 9 7 0 -5 -8
2 -8 20 2 29 15 49 11 38 -7 -4 -7 -2 -8 5 -4 6 4 9 12 6 17 -5 8 9 13 18 7 2
-2 10 2 18 8 8 6 24 10 36 9 12 -1 20 2 18 6 -3 4 12 10 33 14 42 8 48 7 44
-7 -1 -5 2 -7 8 -3 6 3 8 11 5 16 -4 5 -3 9 2 10 4 0 16 2 25 4 10 2 23 -4 28
-13 9 -14 10 -14 5 4 -5 18 0 23 27 29 18 5 41 8 51 8 9 0 17 4 17 9 0 5 5 6
10 3 6 -4 17 -1 25 5 8 7 16 10 16 6 1 -3 2 -10 3 -15 0 -5 4 -13 8 -17 4 -3
6 3 3 15 -2 11 2 22 8 23 7 0 17 2 22 2 6 1 16 5 23 9 7 5 12 3 12 -5 0 -11 2
-11 9 0 7 12 108 44 181 58 14 2 43 11 65 19 22 7 54 16 72 18 17 3 37 8 42
12 6 3 20 8 31 11 11 2 28 6 38 9 26 7 146 37 157 39 6 1 15 4 20 7 6 3 17 5
25 4 8 0 17 3 20 7 3 4 21 10 40 13 19 4 40 8 45 9 6 1 16 5 23 9 6 5 12 5 12
1 0 -3 6 -2 13 3 6 6 26 10 44 9 17 0 29 2 27 6 -5 7 82 33 139 42 9 1 20 5
23 9 4 4 18 7 30 7 13 0 26 5 29 10 9 14 27 2 19 -13 -3 -7 3 -1 14 12 20 24
61 24 46 0 -4 -8 -3 -9 4 -5 6 4 8 14 5 24 -3 9 -3 14 2 10 4 -4 23 -1 41 7
25 10 34 11 34 2 0 -9 2 -9 8 -1 11 18 59 31 134 37 14 1 24 5 21 9 -2 5 2 9
9 9 22 2 31 4 78 19 25 7 51 13 58 11 6 -1 12 2 12 7 0 5 11 8 25 7 14 -2 25
1 25 7 0 6 7 8 15 5 8 -4 17 -1 21 4 3 6 17 9 30 6 13 -2 21 0 18 4 -3 5 4 10
15 10 24 2 30 3 54 13 9 5 24 5 33 2 8 -3 12 -2 9 4 -6 9 7 12 62 13 12 1 20
5 17 9 -3 4 -1 8 5 8 5 0 18 3 28 7 16 6 17 5 3 -12 -13 -16 -11 -16 13 2 16
13 35 19 44 16 11 -4 14 -2 9 5 -5 8 -2 10 8 6 9 -3 16 -1 16 4 0 11 31 9 53
-4 9 -6 9 -4 -1 8 -11 14 -10 16 12 14 15 -2 26 1 26 7 0 5 13 7 29 5 17 -2
28 -1 25 4 -3 4 2 9 10 9 17 2 35 5 39 9 3 2 39 10 60 12 9 1 17 6 17 10 0 4
9 5 20 3 11 -2 20 0 20 5 0 5 8 8 18 8 9 0 26 3 36 7 13 6 17 5 12 -3 -3 -6
-2 -14 4 -17 6 -4 10 -3 9 2 -4 20 2 34 11 28 6 -4 16 -2 23 3 7 6 24 12 37
14 14 2 32 8 40 13 12 7 13 6 3 -6 -9 -11 -7 -14 13 -15 13 -1 24 2 24 8 0 5
-4 6 -10 3 -5 -3 -10 -1 -10 4 0 6 3 11 8 12 4 0 15 2 25 4 10 2 22 -6 28 -17
9 -16 8 -19 -3 -15 -7 2 -12 10 -10 16 1 7 -2 10 -8 6 -16 -10 7 -34 31 -32
12 1 25 10 31 21 10 19 11 18 30 -5 l20 -24 -15 25 c-11 19 -23 25 -46 24 -17
0 -31 3 -31 7 0 4 17 6 38 5 27 -1 42 -8 56 -26 12 -17 16 -19 12 -6 -4 13 -2
17 8 13 9 -4 12 0 9 12 -3 13 2 17 20 17 17 0 23 -4 20 -14 -4 -10 -8 -11 -13
-2 -5 7 -7 -1 -7 -18 2 -25 11 -36 12 -14 1 13 30 52 39 52 4 0 1 -12 -8 -27
l-17 -28 23 28 c28 33 73 46 64 19 -5 -15 -5 -15 6 -2 17 21 78 22 103 2 11
-10 15 -10 8 -2 -21 23 -15 27 30 25 23 -1 50 2 60 7 11 5 17 5 17 -2 0 -5 5
-10 11 -10 5 0 7 6 3 13 -5 7 0 6 11 -3 10 -8 16 -10 12 -3 -5 8 9 11 52 10
32 -1 57 2 54 6 -3 4 14 6 36 3 23 -3 39 -1 36 3 -7 12 28 8 37 -4 5 -7 8 -6
8 0 0 6 9 11 21 12 18 2 19 0 7 -15 -12 -16 -11 -16 7 -1 28 22 58 32 49 16
-5 -9 -4 -9 7 1 19 17 32 15 25 -6 -5 -14 -4 -14 9 2 8 11 15 17 15 14 0 -3
17 -2 37 2 24 6 42 5 50 -2 8 -7 13 -7 13 0 0 5 14 8 30 7 17 -1 30 2 30 9 0
6 5 4 10 -4 5 -8 10 -10 10 -4 0 12 28 12 47 1 6 -4 15 -3 18 3 5 8 12 7 23
-2 10 -8 13 -9 9 -1 -4 6 -3 14 3 18 5 3 10 1 10 -5 0 -6 5 -8 12 -4 18 11 80
15 74 5 -3 -4 1 -8 9 -8 8 0 12 4 9 9 -3 4 3 8 13 9 10 0 34 2 53 4 19 3 76 7
125 10 50 3 101 7 115 8 16 1 24 -3 22 -11 -1 -8 2 -11 8 -7 6 3 8 11 5 16 -4
5 -3 9 2 10 106 7 109 6 104 -24 -1 -5 3 -6 8 -2 6 3 8 12 4 20 -4 11 3 15 28
16 43 1 99 6 169 13 30 4 90 8 132 10 42 3 81 7 87 10 5 4 13 1 17 -5 4 -8 9
-7 15 2 8 12 11 11 19 -1 6 -10 10 -11 10 -2 0 14 56 17 65 2 3 -5 12 -10 18
-9 9 0 9 2 0 6 -23 9 -14 21 15 20 15 0 68 3 117 8 133 11 140 11 137 -4 -1
-7 2 -10 8 -6 6 3 8 10 5 15 -3 5 8 8 23 8 16 -1 35 3 42 7 9 6 11 4 5 -6 -7
-11 -6 -12 6 -2 12 10 18 10 29 0 7 -6 10 -7 7 -1 -4 7 5 11 24 12 20 0 27 -3
22 -11 -3 -7 3 -4 14 6 11 9 22 17 26 17 3 0 4 -8 1 -17 -5 -15 -4 -16 5 -3 7
10 28 15 64 16 29 0 58 3 63 6 10 6 64 10 142 11 28 0 52 4 52 7 0 4 28 6 63
6 34 -1 67 1 72 4 6 2 34 5 63 6 29 0 55 4 58 7 4 4 15 2 25 -3 12 -7 20 -7
24 0 3 5 11 10 16 10 6 0 8 -4 4 -9 -3 -5 0 -13 6 -17 7 -4 9 -3 5 4 -10 16 7
22 81 28 234 18 218 14 217 50 -3 86 -14 195 -19 204 -3 5 0 10 7 10 8 0 9 3
3 8 -13 9 -17 114 -4 107 5 -4 9 0 9 7 0 9 3 9 10 -2 7 -11 10 -11 10 -2 0 7
4 11 10 7 5 -3 7 -13 4 -23 -5 -14 -4 -14 4 -2 6 8 8 18 6 22 -3 4 1 8 8 9 7
0 20 2 28 4 8 2 33 6 55 10 22 3 51 8 65 11 64 12 97 17 116 18 16 1 21 6 18
21 -2 10 -6 37 -9 60 -3 22 -8 51 -10 65 -14 79 -18 97 -20 115 -2 11 -6 37
-10 58 -7 37 -3 43 34 38 7 -2 10 2 7 7 -7 12 13 10 32 -2 8 -5 11 -3 10 5 -2
7 6 13 17 13 11 0 23 4 26 8 3 4 17 9 32 10 15 1 27 5 27 8 0 3 8 6 18 7 27 2
51 9 58 16 4 4 17 7 29 7 32 0 45 18 34 47 -5 14 -7 29 -3 34 3 5 1 9 -4 9 -5
0 -9 6 -10 13 -2 22 -7 42 -15 55 -5 6 -6 16 -2 21 3 5 0 13 -6 16 -5 4 -8 13
-5 21 3 7 1 16 -4 19 -6 4 -10 16 -10 29 0 12 -5 27 -12 34 -7 7 -9 12 -6 12
4 0 -2 29 -12 65 -10 36 -16 65 -13 65 3 0 1 6 -5 13 -8 10 -17 38 -28 92 -1
6 -9 35 -18 66 -9 31 -19 65 -21 75 -3 11 -12 44 -20 74 -8 30 -13 60 -11 67
3 7 1 15 -4 18 -9 5 -30 69 -35 105 -1 8 -5 22 -8 30 -4 8 -8 24 -10 35 -1 11
-5 25 -9 30 -3 6 -12 37 -19 70 -15 69 -14 65 -22 85 -6 14 -28 96 -44 160 -3
14 -7 35 -7 48 -1 12 -5 22 -10 22 -4 0 -6 7 -2 15 3 8 0 15 -5 15 -6 0 -9 9
-6 20 3 10 0 21 -5 22 -6 2 -11 20 -12 40 0 20 -4 34 -8 31 -7 -3 -9 15 -8 52
0 3 -7 19 -15 35 -8 16 -15 32 -15 35 0 3 0 6 -1 8 0 1 -2 11 -4 22 -4 23 -10
44 -18 65 -10 27 -30 112 -30 126 0 8 -4 14 -9 14 -4 0 -7 3 -6 8 3 11 -23
123 -38 165 -8 20 -11 37 -7 37 4 0 2 5 -5 12 -7 7 -12 23 -12 36 0 13 -4 31
-10 41 -5 10 -12 33 -16 52 -8 43 -12 63 -15 69 -1 3 -3 10 -4 15 -1 6 -5 17
-8 25 -21 52 -34 129 -23 140 8 8 7 10 -6 5 -13 -5 -17 2 -23 37 -4 24 -10 48
-13 53 -4 6 -7 15 -7 20 -1 6 -7 30 -14 54 -7 23 -10 50 -7 58 3 8 2 12 -2 9
-5 -3 -19 36 -32 87 -26 99 -30 114 -34 137 -2 8 -6 22 -9 30 -15 38 -26 94
-20 103 4 6 1 7 -7 2 -10 -6 -12 -4 -7 7 3 9 0 21 -6 27 -6 6 -8 11 -4 11 3 0
2 12 -4 28 -6 15 -12 41 -13 57 -1 17 -8 41 -15 53 -12 23 -21 57 -24 95 -1 9
-4 17 -7 17 -4 0 -7 6 -8 13 -1 21 -11 57 -18 69 -5 7 -2 8 7 3 11 -6 12 -5 2
6 -16 17 -17 43 -1 33 7 -4 8 -3 4 5 -4 6 -11 9 -16 6 -9 -6 -25 55 -23 88 0
9 -3 17 -6 17 -4 0 -8 18 -9 40 -2 27 1 40 10 40 10 0 10 2 1 8 -17 11 -27 85
-10 75 8 -4 7 -1 -1 10 -8 9 -11 21 -7 27 3 5 3 10 -2 10 -4 0 -9 20 -10 45
-1 33 2 43 10 38 8 -4 7 -1 -1 9 -7 9 -15 45 -17 80 -2 35 -6 83 -9 108 -3 25
-8 77 -11 115 -3 39 -7 82 -9 98 -2 15 1 30 6 33 5 3 5 11 -1 18 -6 7 -12 50
-13 94 -2 45 -5 82 -8 82 -3 0 -6 30 -8 68 -4 109 -8 151 -15 158 -4 4 -2 13
4 21 6 7 7 13 3 13 -8 0 -13 43 -18 155 0 17 -5 33 -11 37 -6 5 -5 8 3 8 7 0
10 5 6 11 -3 6 -8 41 -11 77 -7 115 -8 120 -15 127 -4 4 -3 17 2 30 5 13 6 25
3 28 -6 6 -10 47 -18 152 -4 65 -10 135 -16 223 -2 20 -8 40 -14 44 -6 5 -5 8
3 8 7 0 11 4 8 8 -3 5 -7 42 -10 83 -3 41 -8 97 -11 124 -2 28 -7 82 -10 120
-9 130 -17 200 -21 204 -2 2 1 10 7 18 6 7 7 13 2 13 -5 0 -10 21 -12 48 -1
26 -4 70 -6 97 -3 28 -7 79 -10 114 -3 35 -8 67 -11 72 -3 5 0 9 6 9 7 0 8 6
1 18 -7 13 -6 23 2 32 9 10 9 11 -1 6 -9 -5 -12 1 -10 21 1 16 -2 35 -7 42 -6
10 -4 12 5 6 10 -6 11 -4 4 6 -13 21 -17 62 -5 55 6 -4 4 5 -4 20 -7 15 -11
33 -8 40 3 8 0 27 -5 44 -7 18 -7 32 -1 35 5 4 5 14 -1 26 -8 14 -7 19 2 19 8
0 9 3 3 8 -10 7 -11 10 -19 135 -3 57 -1 76 7 71 7 -3 5 0 -4 8 -8 7 -15 30
-16 53 -2 74 -8 90 -34 88 -28 -2 -187 -13 -275 -18 -67 -5 -72 0 -70 58 1 15
-2 27 -7 27 -5 0 -7 14 -5 30 3 17 0 30 -5 30 -6 0 -8 3 -5 6 3 3 2 20 -2 37
-5 18 -12 52 -16 77 -9 65 -9 64 -17 78 -5 7 -14 9 -20 5 -7 -4 -23 -8 -37 -9
-14 -1 -25 -2 -25 -4 0 -1 -13 -3 -30 -5 -16 -1 -43 -5 -60 -9 -16 -3 -41 -8
-55 -11 -14 -3 -46 -8 -72 -11 -46 -6 -51 -4 -47 22 0 4 -5 11 -13 15 -11 7
-11 12 0 30 8 11 9 18 3 14 -11 -6 -36 43 -26 53 2 3 0 11 -6 19 -6 7 -8 13
-4 13 4 0 1 8 -6 17 -12 14 -12 15 0 9 8 -6 7 0 -4 18 -10 14 -15 26 -12 26 3
0 -1 19 -8 43 -8 29 -18 43 -31 44 -10 1 -63 -10 -116 -26z m-1955 -9136 c-3
-9 -8 -14 -10 -11 -3 3 -2 9 2 15 9 16 15 13 8 -4z m-70 -32 c-3 -7 -9 -10
-14 -7 -14 8 -11 21 5 21 8 0 12 -6 9 -14z"/>
<path d="M910 4666 c0 -2 7 -7 16 -10 8 -3 12 -2 9 4 -6 10 -25 14 -25 6z"/>
<path d="M970 4496 c0 -2 8 -10 18 -17 15 -13 16 -12 3 4 -13 16 -21 21 -21
13z"/>
<path d="M960 4460 c-9 -6 -10 -10 -3 -10 6 0 15 5 18 10 8 12 4 12 -15 0z"/>
<path d="M1011 4324 c0 -11 3 -14 6 -6 3 7 2 16 -1 19 -3 4 -6 -2 -5 -13z"/>
<path d="M10093 2135 c0 -8 4 -12 9 -9 5 3 6 10 3 15 -9 13 -12 11 -12 -6z"/>
<path d="M10035 2129 c-4 -6 -5 -12 -2 -15 2 -3 7 2 10 11 7 17 1 20 -8 4z"/>
<path d="M9755 1660 c-3 -5 -1 -10 4 -10 6 0 11 5 11 10 0 6 -2 10 -4 10 -3 0
-8 -4 -11 -10z"/>
<path d="M9475 1300 c3 -5 8 -10 11 -10 2 0 4 5 4 10 0 6 -5 10 -11 10 -5 0
-7 -4 -4 -10z"/>
<path d="M8854 1256 c1 -8 5 -18 8 -22 4 -3 5 1 4 10 -1 8 -5 18 -8 22 -4 3
-5 -1 -4 -10z"/>
<path d="M8970 1259 c0 -5 5 -7 10 -4 6 3 10 8 10 11 0 2 -4 4 -10 4 -5 0 -10
-5 -10 -11z"/>
<path d="M9010 1259 c0 -5 5 -7 10 -4 6 3 10 8 10 11 0 2 -4 4 -10 4 -5 0 -10
-5 -10 -11z"/>
<path d="M7836 1167 c3 -10 9 -15 12 -12 3 3 0 11 -7 18 -10 9 -11 8 -5 -6z"/>
<path d="M7290 1122 c0 -5 7 -9 15 -9 8 0 12 4 9 9 -3 4 -9 8 -15 8 -5 0 -9
-4 -9 -8z"/>
<path d="M7710 1121 c0 -6 4 -13 10 -16 6 -3 7 1 4 9 -7 18 -14 21 -14 7z"/>
<path d="M7233 1085 c0 -8 4 -12 9 -9 5 3 6 10 3 15 -9 13 -12 11 -12 -6z"/>
<path d="M6756 1078 c3 -5 10 -6 15 -3 13 9 11 12 -6 12 -8 0 -12 -4 -9 -9z"/>
<path d="M6650 1059 c0 -5 5 -7 10 -4 6 3 10 8 10 11 0 2 -4 4 -10 4 -5 0 -10
-5 -10 -11z"/>
<path d="M6414 1039 c0 -13 3 -15 13 -7 7 6 13 12 13 13 0 2 -6 5 -13 8 -7 3
-13 -3 -13 -14z"/>
<path d="M6230 1046 c0 -2 7 -7 16 -10 8 -3 12 -2 9 4 -6 10 -25 14 -25 6z"/>
<path d="M6313 1035 c0 -8 4 -12 9 -9 5 3 6 10 3 15 -9 13 -12 11 -12 -6z"/>
<path d="M6075 1030 c-3 -5 -1 -10 4 -10 6 0 11 5 11 10 0 6 -2 10 -4 10 -3 0
-8 -4 -11 -10z"/>
<path d="M6150 1036 c0 -2 7 -7 16 -10 8 -3 12 -2 9 4 -6 10 -25 14 -25 6z"/>
<path d="M6134 1022 c3 -6 -2 -13 -11 -15 -16 -4 -16 -5 -1 -6 21 -1 32 15 17
25 -7 4 -9 3 -5 -4z"/>
<path d="M6193 1015 c0 -8 4 -12 9 -9 5 3 6 10 3 15 -9 13 -12 11 -12 -6z"/>
<path d="M6059 1008 c-6 -21 -5 -37 2 -32 5 3 7 9 4 14 -3 4 1 11 7 13 10 4
10 6 1 6 -7 1 -13 0 -14 -1z"/>
<path d="M6160 1000 c-9 -6 -10 -10 -3 -10 6 0 15 5 18 10 8 12 4 12 -15 0z"/>
<path d="M5725 970 c-10 -11 -13 -20 -7 -20 7 0 12 5 12 11 0 6 7 9 14 6 10
-4 13 -1 9 9 -7 18 -6 18 -28 -6z"/>
<path d="M5775 962 c8 -8 55 -11 55 -3 0 4 -13 8 -30 8 -16 0 -28 -2 -25 -5z"/>
<path d="M5594 926 c1 -14 5 -29 9 -32 3 -3 4 6 3 20 -2 15 -6 29 -9 32 -3 4
-5 -6 -3 -20z"/>
<path d="M5615 940 c3 -5 8 -10 11 -10 2 0 4 5 4 10 0 6 -5 10 -11 10 -5 0 -7
-4 -4 -10z"/>
<path d="M5690 940 c0 -5 5 -10 11 -10 5 0 7 5 4 10 -3 6 -8 10 -11 10 -2 0
-4 -4 -4 -10z"/>
<path d="M5555 929 c-4 -6 -4 -13 -1 -16 3 -4 6 -1 6 6 0 7 5 9 12 5 7 -4 8
-3 4 4 -9 15 -13 15 -21 1z"/>
<path d="M5466 903 c-6 -14 -5 -15 5 -6 7 7 10 15 7 18 -3 3 -9 -2 -12 -12z"/>
<path d="M5519 893 c-13 -16 -12 -17 4 -4 9 7 17 15 17 17 0 8 -8 3 -21 -13z"/>
<path d="M5370 882 c0 -4 10 -9 22 -9 18 -2 20 0 8 7 -18 12 -30 13 -30 2z"/>
<path d="M5290 856 c0 -2 8 -10 18 -17 15 -13 16 -12 3 4 -13 16 -21 21 -21
13z"/>
<path d="M4996 767 c3 -10 9 -15 12 -12 3 3 0 11 -7 18 -10 9 -11 8 -5 -6z"/>
<path d="M4845 720 c-3 -6 1 -7 9 -4 18 7 21 14 7 14 -6 0 -13 -4 -16 -10z"/>
<path d="M1590 656 c0 -2 8 -10 18 -17 15 -13 16 -12 3 4 -13 16 -21 21 -21
13z"/>
<path d="M4673 645 c0 -8 4 -12 9 -9 5 3 6 10 3 15 -9 13 -12 11 -12 -6z"/>
<path d="M4446 618 c3 -5 10 -6 15 -3 13 9 11 12 -6 12 -8 0 -12 -4 -9 -9z"/>
<path d="M3830 459 c0 -5 5 -7 10 -4 6 3 10 8 10 11 0 2 -4 4 -10 4 -5 0 -10
-5 -10 -11z"/>
<path d="M3736 438 c3 -5 10 -6 15 -3 13 9 11 12 -6 12 -8 0 -12 -4 -9 -9z"/>
<path d="M3695 420 c3 -5 8 -10 11 -10 2 0 4 5 4 10 0 6 -5 10 -11 10 -5 0 -7
-4 -4 -10z"/>
<path d="M1970 339 c0 -5 5 -7 10 -4 6 3 10 8 10 11 0 2 -4 4 -10 4 -5 0 -10
-5 -10 -11z"/>
<path d="M2015 340 c3 -5 8 -10 11 -10 2 0 4 5 4 10 0 6 -5 10 -11 10 -5 0 -7
-4 -4 -10z"/>
<path d="M3415 340 c-3 -5 -1 -10 4 -10 6 0 11 5 11 10 0 6 -2 10 -4 10 -3 0
-8 -4 -11 -10z"/>
<path d="M2086 318 c3 -5 10 -6 15 -3 13 9 11 12 -6 12 -8 0 -12 -4 -9 -9z"/>
<path d="M3380 326 c0 -2 8 -10 18 -17 15 -13 16 -12 3 4 -13 16 -21 21 -21
13z"/>
<path d="M3075 271 c-3 -5 -2 -12 3 -15 5 -3 9 1 9 9 0 17 -3 19 -12 6z"/>
<path d="M2540 126 c0 -2 8 -10 18 -17 15 -13 16 -12 3 4 -13 16 -21 21 -21
13z"/>
<path d="M2490 100 c0 -5 5 -10 11 -10 5 0 7 5 4 10 -3 6 -8 10 -11 10 -2 0
-4 -4 -4 -10z"/>
</g>
</svg>
